<svg width="216" height="208" viewBox="0 0 216 208" fill="none" xmlns="http://www.w3.org/2000/svg">
<g clip-path="url(#clip0_4_2)">
<path d="M108 208C167.647 208 216 161.438 216 104C216 46.5624 167.647 0 108 0C48.3532 0 0 46.5624 0 104C0 161.438 48.3532 208 108 208Z" fill="black"/>
<path d="M79.0727 42.0852L84.0563 42.4896L81.9532 68.4044L77 68L79.0727 42.0852Z" fill="#FEF8DF"/>
<path d="M77 68L80.6131 65L99 84L94.7346 87.0125L77 68Z" fill="#FEF8DF"/>
<path d="M56 62.36L60.408 60L72.68 82.9216L68.2975 85.2651L56 62.36Z" fill="#FEF8DF"/>
<path d="M68.2975 85.2651L69.7092 80.786L94.6715 86.8168L93.5043 91.6377L68.2975 85.2651Z" fill="#FEF8DF"/>
<path d="M94.2941 99L96 105L69.6288 117.294L67.8099 110.957L94.2941 99Z" fill="#FEF8DF"/>
<path d="M67.8726 110.989L73.5154 114.304L63.1113 146.57L57.001 143.483L67.8726 110.989Z" fill="#FEF8DF"/>
<path d="M93.2474 92.9073L93.5998 97.8949L66.4464 99.8136L64 95L93.2474 92.9073Z" fill="#FEF8DF"/>
<path d="M64 95L67.6479 97.4665L55.355 120.014L51.0012 117.637L64 95Z" fill="#FEF8DF"/>
<path d="M94.201 85.7934L108 79V87L97.3692 91.9544L94.201 85.7934Z" fill="#FEF8DF"/>
<path d="M100 87H93V105H100V87Z" fill="#FEF8DF"/>
<path d="M137.181 42L132.197 42.4044L134.3 68.3192L139.253 67.9148L137.181 42Z" fill="#FEF8DF"/>
<path d="M139.253 67.9148L135.64 64.9148L117 84L121.519 86.9273L139.253 67.9148Z" fill="#FEF8DF"/>
<path d="M160.253 62.2748L155.845 59.9148L143.574 82.8364L147.956 85.1799L160.253 62.2748Z" fill="#FEF8DF"/>
<path d="M147.956 85.1799L146.544 80.7008L121.582 86.7316L122.749 91.5525L147.956 85.1799Z" fill="#FEF8DF"/>
<path d="M121.959 98.9148L120.253 104.915L146.625 117.209L148.444 110.872L121.959 98.9148Z" fill="#FEF8DF"/>
<path d="M148.381 110.904L142.738 114.219L153.142 146.485L159.252 143.398L148.381 110.904Z" fill="#FEF8DF"/>
<path d="M123.006 92.8221L122.654 97.8096L149.807 99.7284L152.253 94.9148L123.006 92.8221Z" fill="#FEF8DF"/>
<path d="M152.253 94.9148L148.606 97.3813L160.898 119.928L165.252 117.552L152.253 94.9148Z" fill="#FEF8DF"/>
<path d="M122.052 85.7082L108 79V87L118.884 91.8692L122.052 85.7082Z" fill="#FEF8DF"/>
<path d="M116.253 86.9148H123.253V104.915H116.253V86.9148Z" fill="#FEF8DF"/>
<path d="M96.5439 97.5075L133 120L128.186 126.752L92.5 104.5L96.5439 97.5075Z" fill="#FEF8DF"/>
<path d="M133 120H126V146H133V120Z" fill="#FEF8DF"/>
<path d="M91 118H84V146H91V118Z" fill="#FEF8DF"/>
<path d="M108.986 151L129.672 140L132.985 146L108.986 159V151Z" fill="#FEF8DF"/>
<path d="M109 151L87.4738 139.868L84.1604 145.868L109 159V151Z" fill="#FEF8DF"/>
<path d="M84 117.603L95 111.5L101 115.5L87.5305 123.647L84 117.603Z" fill="#FEF8DF"/>
</g>
<defs>
<clipPath id="clip0_4_2">
<rect width="216" height="208" fill="white"/>
</clipPath>
</defs>
</svg>
